<svg width="12" height="12" viewBox="0 0 12 12" fill="none" xmlns="http://www.w3.org/2000/svg">
<path d="M0 11.0833V9.91667H5.25V3.39792C4.99722 3.31042 4.77847 3.17431 4.59375 2.98958C4.40903 2.80486 4.27292 2.58611 4.18542 2.33333H2.33333L4.08333 6.41667C4.08333 6.90278 3.88403 7.31597 3.48542 7.65625C3.08681 7.99653 2.60556 8.16667 2.04167 8.16667C1.47778 8.16667 0.996528 7.99653 0.597917 7.65625C0.199306 7.31597 0 6.90278 0 6.41667L1.75 2.33333H0.583333V1.16667H4.18542C4.30208 0.826389 4.51111 0.546875 4.8125 0.328125C5.11389 0.109375 5.45417 0 5.83333 0C6.2125 0 6.55278 0.109375 6.85417 0.328125C7.15556 0.546875 7.36458 0.826389 7.48125 1.16667H11.0833V2.33333H9.91667L11.6667 6.41667C11.6667 6.90278 11.4674 7.31597 11.0688 7.65625C10.6701 7.99653 10.1889 8.16667 9.625 8.16667C9.06111 8.16667 8.57986 7.99653 8.18125 7.65625C7.78264 7.31597 7.58333 6.90278 7.58333 6.41667L9.33333 2.33333H7.48125C7.39375 2.58611 7.25764 2.80486 7.07292 2.98958C6.88819 3.17431 6.66944 3.31042 6.41667 3.39792V9.91667H11.6667V11.0833H0ZM8.53125 6.41667H10.7188L9.625 3.87917L8.53125 6.41667ZM0.947917 6.41667H3.13542L2.04167 3.87917L0.947917 6.41667ZM5.83333 2.33333C5.99861 2.33333 6.13715 2.27743 6.24896 2.16563C6.36076 2.05382 6.41667 1.91528 6.41667 1.75C6.41667 1.58472 6.36076 1.44618 6.24896 1.33438C6.13715 1.22257 5.99861 1.16667 5.83333 1.16667C5.66806 1.16667 5.52951 1.22257 5.41771 1.33438C5.3059 1.44618 5.25 1.58472 5.25 1.75C5.25 1.91528 5.3059 2.05382 5.41771 2.16563C5.52951 2.27743 5.66806 2.33333 5.83333 2.33333Z" fill="#1B1B1B" style="fill:#1B1B1B;fill:color(display-p3 0.1059 0.1059 0.1059);fill-opacity:1;"/>
</svg>
